<svg version="1.1" xmlns="http://www.w3.org/2000/svg" viewBox="-253.2 -1613.45 3894.1720619623306 2436.8999999999996"><desc>Created with Snap</desc><defs></defs><g><g transform="matrix(2.7028,0,0,2.7028,1476.8654,-1340.9466)"><path d="M176.9,14.7c1.7,1.1,3.3,2,3.6,2c1.1,0,28.8,17.7,38.1,24.4c21.2,15.2,30.5,23.1,46.8,39.5c27.2,27.4,39.6,49.5,44,78.8  c1.2,7.6,1.1,9.8-0.2,9.8c-0.8,0-1.4-1.7-2.1-5.8c-2.4-15-6.2-28-11.1-37.9c-13.8-27.4-44.8-58.7-85.7-86.6  c-8.4-5.8-28.3-18.2-29.1-18.2c-0.2,0-1.5-0.7-2.9-1.7c-1.3-1-2.5-1.5-2.6-1.3c-0.2,0.2-0.4,5.8-0.5,12.5  c-0.2,11.9-2.1,33.8-3.8,42.9c-2.8,14.5-7.7,38.6-10.1,48.8c-16,68.6-19.3,91.2-18.3,122.6c0.8,27.1,6.3,48.1,19.6,74.7  c11,21.8,22.6,37.2,43.3,56.8c7,6.6,15.9,14.4,19.8,17.5c13.3,10.5,33.3,23.3,50.8,32.7c5.9,3.2,6.5,3.8,5.4,4.9  c-0.9,0.9-4.9-1-16.9-8c-27.7-16.1-43.5-28.1-64.9-49c-19.8-19.4-29.5-32.3-40.4-54.3c-14.6-29.3-19.5-50-19.4-82.1  c0.1-32.4,2.5-48.2,16.6-109.5c8.3-36.6,12.6-59.3,14.1-75c0.2-3.3,0.6-6.2,0.9-6.5c0.2-0.3,0.3-7.8,0.3-16.7  c0.1-8.9,0.2-16.4,0.5-16.7C173.2,12.5,173.5,12.6,176.9,14.7z M486.5,141.4c18.2,1.5,33.7,4.1,64.7,11.1  c39.6,8.9,45.2,10.2,55.2,12.1c22,4.4,29.2,5.6,40.5,6.6c3.3,0.2,6.2,0.6,6.5,0.9c0.3,0.2,7.9,0.3,16.9,0.3c9,0.1,16.4,0.3,16.7,0.7  c0.8,1.3-16.5,29.7-27.9,45.6c-15.1,21-22.9,30.2-39.5,46.8c-27.2,27.1-49.5,39.6-78.7,44c-7.6,1.2-9.8,1.1-9.8-0.2  c0-0.8,1.7-1.4,5.8-2.1c21.4-3.3,34.5-8.2,50.6-18.6c24.5-16,53.8-47.5,77.2-83c7.5-11.4,18.3-29.5,17.9-29.8  c-0.2-0.2-5.8-0.4-12.5-0.5c-11.9-0.2-33.8-2.1-42.9-3.8c-14.5-2.8-38.6-7.7-48.8-10.1c-68.6-16-91.2-19.3-122.6-18.3  c-27.1,0.8-48.1,6.3-74.7,19.6c-21.8,10.9-36.9,22.5-56.7,43.2c-12.9,13.6-20.8,23.3-30.4,37.6c-6.1,9-14.7,23.2-20,33.1  c-3.2,5.9-3.8,6.5-4.9,5.4c-0.9-0.9,1-4.9,8-16.9c16.1-27.7,28.1-43.5,49-64.9c19.4-19.8,32.3-29.5,54.3-40.4  c23-11.5,40.6-16.7,65-19.2C452,140,474.1,140.3,486.5,141.4z M424.1,271c12.2,6.5,28.1,16.3,39.5,24.3c25.1,17.7,51,43.5,65.8,65.4  c5.8,8.6,17.1,31.5,20.7,42.2c7.6,22.2,9.7,34.7,9.5,59.6c-0.1,32.9-2.4,47.9-17.9,115.1c-4.8,21-10,47.2-11.4,57.9  c-0.5,3-1,8.3-1.3,11.5c-0.2,3.3-0.6,6.2-0.9,6.5c-0.2,0.3-0.3,7.9-0.3,16.9c-0.1,9-0.4,16.4-0.8,16.7c-0.3,0.2-2.1-0.5-3.8-1.6  c-1.8-1.1-3.4-2-3.7-2c-1.1,0-28.8-17.7-38.1-24.4c-21.2-15.2-30.5-23.1-46.8-39.5c-27.2-27.4-39.6-49.5-44-78.8  c-1.2-7.6-1.1-9.8,0.2-9.8c0.8,0,1.4,1.7,2.1,5.7c3.4,21.9,8.3,35.1,18.8,51c15.5,23.5,43.7,50.1,78,73.5  c8.4,5.8,28.3,18.2,29.1,18.2c0.2,0,1.5,0.7,2.9,1.7c1.3,1,2.5,1.5,2.6,1.3c0.2-0.2,0.4-5.8,0.5-12.5c0.2-11.9,2.1-34,3.8-42.9  c0.5-2.4,1.2-6.4,1.6-8.7c1.3-7.5,6.1-29.8,10.7-49.6c13.5-58.7,16-75.2,16-106.4c0-14.8-0.3-21-1.4-27.7c-3.3-19-8.4-34.5-18-53.7  c-11-21.8-22.6-37.2-43.3-56.8c-7-6.6-15.8-14.4-19.8-17.5c-13.7-10.6-33.3-23.3-50.8-32.7c-5.6-3.1-6.3-3.7-5.6-4.8  C418.6,268,418.5,268,424.1,271z M169,390.9c0,0.8-1.7,1.4-5.7,2.1c-21.9,3.4-34.4,8-50.6,18.6c-24.7,16-53.7,47.4-77.2,83  C28,506,17.2,524.1,17.6,524.4c0.2,0.2,5.8,0.4,12.5,0.5C42,525,63.9,527,73,528.7c16.4,3.1,39.4,7.9,53.9,11.3  c61.4,14.2,79.5,17,110.8,17c14.8,0,21-0.3,27.7-1.4c19-3.3,34.5-8.4,53.7-18c21.8-10.9,36.8-22.3,56.7-43.2  c12.9-13.6,18.7-20.6,28.7-35c6.3-9,16.1-25.2,21.8-35.7c3.2-5.9,3.8-6.5,4.9-5.4c0.9,0.9-1,4.9-8,16.9c-16.1,27.7-28,43.4-49,64.9  c-19.4,19.8-32.3,29.5-54.3,40.4c-29.3,14.6-50,19.5-82.1,19.4c-29.5-0.1-46.4-2.4-88.9-11.9c-39.6-8.9-45.2-10.2-55.2-12.1  c-22-4.4-29.2-5.6-40.5-6.6c-3.3-0.2-6.2-0.6-6.5-0.9c-0.3-0.2-7.9-0.3-16.9-0.3c-9-0.1-16.4-0.3-16.7-0.7  c-0.8-1.3,16.5-29.7,27.9-45.6c15.2-21.1,23-30.5,39.5-46.8c26.8-26.8,48-38.7,76.7-43.7C165.4,389.6,169,389.6,169,390.9z" fill="#e94b3c" style=""></path><desc>Created with Snap</desc><defs></defs></g><g><g transform="matrix(0.5,0,0,-0.5,0,0)"><path d="M344 530Q331 426 331 364Q331 303 346 251Q361 199 389 161Q449 80 541 80Q717 80 717 274Q717 430 536 605L432 706Q295 838 245 918Q146 1076 146 1232Q146 1359 228 1445Q327 1550 513 1550Q586 1550 623 1543Q692 1530 715 1530Q773 1530 805 1566Q817 1579 831 1600Q904 1559 904 1299Q904 1133 871 1054Q860 1027 846 1020Q830 1171 748 1290Q652 1430 526 1430Q418 1430 393 1331Q386 1303 386 1261Q386 1220 411 1167Q436 1114 476 1061Q517 1009 570 956Q730 792 782 734Q835 676 876 614Q966 475 966 345Q966 188 844 85Q718 -20 520 -20Q356 -20 238 62Q108 152 108 300Q147 439 278 504Q313 522 344 530ZM1767 808L1768 430Q1768 249 1677 124Q1570 -20 1379 -20Q1229 -20 1139 80Q1057 171 1057 300Q1102 404 1153 459Q1237 550 1293 560Q1277 469 1277 393Q1277 317 1283 264Q1290 212 1305 171Q1338 80 1409 80Q1471 80 1503 160Q1530 226 1530 337L1530 577Q1530 1011 1524 1308Q1522 1387 1500 1438Q1479 1490 1428 1530L1823 1530Q1793 1476 1786 1414Q1780 1352 1775 1278Q1767 1137 1767 808ZM2088 161Q2088 231 2135 282Q2182 332 2249 332Q2316 332 2363 282Q2410 231 2410 161Q2410 89 2363 40Q2315 -10 2249 -10Q2183 -10 2135 40Q2088 89 2088 161Z" fill="#2d2926" style=""></path></g></g></g></svg>